<svg width="593" height="590" viewBox="0 0 593 590" fill="none" xmlns="http://www.w3.org/2000/svg">
<g clip-path="url(#clip0_18_182)">
<path d="M526.332 3.91209C557.757 14.4054 579.056 35.1936 588.077 68.3182C590.507 77.2398 591.853 86.8045 591.868 96.0772C592.085 228.4 592.033 360.723 591.941 493.046C591.909 538.841 566.084 574.529 524.026 586.566C516.574 588.699 508.565 589.541 500.811 589.551C364.653 589.732 228.495 589.929 92.3377 589.546C54.0417 589.439 25.489 571.162 8.63335 534.579C3.28808 522.977 0.952384 510.432 0.943869 497.582C0.854483 362.469 0.66152 227.356 0.934714 92.2447C1.03728 41.5133 40.7353 0.368556 89.3355 0.281491C226.993 0.0348904 364.651 0.0875175 502.309 0.277141C510.188 0.287987 518.064 2.57467 526.332 3.91209ZM495.197 243.501C487.112 244.349 486.455 237.953 485.096 231.672C483.744 233.693 482.858 235.492 482.984 237.211C483.265 241.041 481.606 242.568 478.239 242.991C475.52 243.333 472.834 243.961 470.133 244.462C472.729 245.872 475.172 246.399 477.633 246.534C481.419 246.74 483.306 248.456 483.396 252.602C483.451 255.174 484.208 257.73 484.65 260.293C485.581 252.125 486.977 245.141 497.493 246.433C498.861 246.111 500.23 245.789 501.598 245.467C501.519 244.864 501.441 244.26 501.362 243.657C499.573 243.657 497.784 243.657 495.197 243.501ZM385.754 185.874C385.638 186.585 385.522 187.295 384.947 188.178C384.948 188.915 384.949 189.653 384.811 191.147C382.629 192.625 380.605 194.925 378.234 195.425C371.229 196.903 364.087 197.669 356.682 198.302C356.122 198.537 355.561 198.773 354.256 199.121C352.504 199.349 350.752 199.576 348.744 199.371C348.066 199.65 347.388 199.928 345.982 200.411C344.989 200.564 343.995 200.718 342.68 200.472C342.119 200.683 341.559 200.895 340.448 201.203C340.079 201.251 339.709 201.299 338.616 200.985C337.26 201.164 335.904 201.344 334.547 201.524C334.606 201.992 334.665 202.461 334.724 202.929C336.15 202.929 337.576 202.929 339.841 203.024C344.134 203.557 348.427 204.09 352.887 205.13C353.591 205.116 354.295 205.103 355.752 205.175C356.754 205.279 357.757 205.383 358.976 206.102C360.317 206.108 361.659 206.113 363.787 206.219C365.094 206.407 366.401 206.594 367.984 207.284C368.99 207.237 369.995 207.189 371.691 207.231C372.376 207.366 373.06 207.502 373.997 208.232C375.331 208.244 376.665 208.256 378.779 208.333C381.716 208.583 384.446 209.126 384.489 213.567C384.794 214.308 385.1 215.048 385.539 216.67C386.302 222.07 387.065 227.47 387.49 233.485C387.715 234.114 387.94 234.744 388.281 236.15C388.463 237.986 388.644 239.821 388.367 242.105C388.803 243.417 389.239 244.729 389.814 246.962C390.195 251.014 390.576 255.066 390.957 259.119C392.194 257.599 392.52 256.102 392.717 254.586C394.423 241.497 396.184 228.415 397.752 215.308C398.262 211.044 400.102 208.816 404.288 208.292C416.327 206.783 428.341 205.059 440.365 203.412C442.125 203.171 443.881 202.888 445.639 202.624C444.595 201.721 443.64 201.466 442.67 201.321C430.495 199.5 418.346 197.427 406.129 196.006C400.417 195.342 398.001 192.641 397.54 186.86C397.058 180.806 396.054 174.796 395.214 168.776C394.23 161.715 393.178 154.664 392.155 147.609C391.597 147.619 391.039 147.629 390.481 147.64C390.154 151.688 389.828 155.736 388.952 160.064C388.954 161.455 388.955 162.846 388.9 164.964C388.786 165.683 388.672 166.402 387.974 167.35C387.921 168.753 387.869 170.156 387.726 172.338C387.583 173.372 387.441 174.407 386.868 175.663C386.9 176.388 386.933 177.112 386.892 178.565C386.798 179.29 386.704 180.015 386.017 180.953C385.954 182.355 385.892 183.756 385.754 185.874ZM315.345 358.102C315.47 356.93 315.595 355.758 316.255 354.005C316.3 352.399 316.345 350.792 316.595 348.562C316.604 348.124 316.614 347.686 317.117 346.739C317.123 344.828 317.13 342.917 317.304 340.317C317.426 339.143 317.548 337.969 318.208 336.251C318.242 334.979 318.276 333.707 318.559 331.67C318.657 330.599 318.755 329.528 319.215 328.16C319.163 327.564 319.111 326.969 319.247 325.639C319.383 324.127 319.519 322.615 320.163 320.541C320.221 319.275 320.278 318.01 320.605 315.864C320.869 314.1 321.132 312.337 321.543 309.589C331.382 318.627 340.368 326.882 349.353 335.136C349.732 334.734 350.111 334.333 350.49 333.931C343.049 324.095 335.608 314.259 327.525 303.574C367.729 299.113 406.783 294.779 445.837 290.445C445.826 290.221 445.814 289.996 445.803 289.772C406.586 284.854 367.37 279.936 327.006 274.874C335.649 263.93 343.391 254.127 351.134 244.324C350.9 243.874 350.667 243.424 350.434 242.974C349.095 243.604 347.498 243.933 346.46 244.911C339.304 251.658 332.277 258.556 325.171 265.362C324.302 266.194 323.208 266.771 321.088 268.26C316.442 226.664 311.927 186.229 307.411 145.795C307.274 145.77 307.137 145.745 307 145.721C302.375 186.205 297.749 226.689 292.983 268.392C283.247 259.726 274.522 251.959 265.797 244.193C265.375 244.663 264.952 245.134 264.53 245.605C271.748 255.006 278.965 264.407 287.168 275.092C246.205 280.031 206.819 284.781 167.433 289.53C167.432 289.776 167.43 290.022 167.429 290.268C206.811 294.706 246.193 299.145 286.554 303.693C278.635 313.887 271.442 323.145 264.25 332.403C264.452 332.797 264.654 333.191 264.855 333.586C266.046 333.005 267.445 332.674 268.394 331.806C275.259 325.524 281.987 319.078 288.887 312.84C289.859 311.962 291.532 311.933 292.576 312.229C292.851 313.437 293.125 314.644 293.37 316.519C293.485 316.945 293.599 317.372 293.367 318.447C293.664 319.334 293.96 320.222 294.273 321.969C294.769 325.809 295.266 329.649 295.401 334.207C295.773 335.944 296.144 337.681 296.541 340.163C296.677 341.147 296.812 342.13 296.654 343.473C296.799 344.048 296.944 344.623 297.075 345.993C297.305 347.815 297.534 349.638 297.411 351.978C297.731 353.389 298.051 354.8 298.353 356.997C298.537 358.295 298.721 359.594 298.591 361.361C298.8 362.243 299.008 363.126 299.204 364.822C299.389 365.886 299.574 366.95 299.455 368.771C299.74 370.315 300.025 371.86 300.274 374.113C300.444 375.28 300.615 376.448 300.417 378.131C300.687 379.35 300.956 380.57 301.206 382.58C301.45 384.418 301.694 386.257 301.627 388.557C301.817 389.441 302.008 390.325 302.163 392.004C302.413 393.838 302.664 395.672 302.578 398.028C302.872 399.421 303.166 400.814 303.455 402.946C303.589 403.92 303.723 404.894 303.529 406.398C303.811 407.802 304.094 409.206 304.343 411.424C304.496 413.057 304.649 414.69 304.423 416.96C304.817 419.339 305.21 421.718 305.559 424.66C305.643 425.023 305.728 425.385 305.49 426.407C305.856 429.624 306.222 432.842 306.588 436.06C307.103 436.018 307.618 435.976 308.133 435.933C308.133 432.568 308.133 429.202 308.283 425.082C308.431 423.553 308.579 422.024 309.172 420.137C309.146 419.217 309.121 418.297 309.242 416.541C309.421 414.027 309.601 411.512 310.178 408.595C310.168 407.684 310.158 406.773 310.329 405.224C310.386 404.561 310.443 403.899 311.006 402.811C311.028 401.042 311.051 399.274 311.239 396.73C311.4 394.888 311.56 393.047 312.183 390.665C312.2 389.733 312.216 388.802 312.446 387.028C312.56 385.285 312.675 383.542 313.194 381.321C313.178 380.087 313.161 378.852 313.335 376.897C313.377 375.904 313.42 374.912 313.992 373.417C314.086 371.959 314.181 370.502 314.501 368.206C314.612 366.463 314.722 364.719 315.215 362.48C315.198 361.248 315.181 360.017 315.345 358.102ZM97.1833 220.465C84.37 225.972 79.5606 235.841 83.2153 249.732C87.0615 264.351 96.3946 275.309 106.071 285.901C127.853 309.747 153.653 328.197 180.239 345.501C191.624 352.911 203.367 359.718 215.482 367.125C216.133 364.73 216.391 363.215 216.949 361.833C218.923 356.938 217.32 354.467 212.806 351.921C186.255 336.948 161.04 319.779 137.741 299.676C124.332 288.106 111.783 275.632 103.313 259.432C95.2011 243.916 100.22 231.444 116.783 228.315C125.825 226.606 135.406 226.428 144.58 227.352C182.693 231.189 218.579 243.914 253.856 258.757C259.191 261.002 264.434 263.483 270.753 266.319C266.735 257.286 261.76 251.215 253.525 248.575C257.413 242.502 252.023 241.51 249.999 238.614C244.035 244.328 244.034 244.331 236.879 241.863C228.526 238.982 220.196 236.026 211.818 233.225C184.943 224.239 157.669 217.244 129.345 215.782C118.626 215.229 108.041 216.117 97.1833 220.465ZM413.339 425.198C380.299 421.354 348.909 410.733 317.298 398.782C317.112 401.569 317.315 403.556 316.797 405.311C315.386 410.086 317.593 411.587 321.605 412.848C333.054 416.446 344.311 420.712 355.751 424.346C382.587 432.87 409.765 439.532 438.057 439.344C447.783 439.279 457.34 438.235 466.141 433.308C471.232 430.458 474.892 426.307 476.44 420.493C478.259 413.66 476.973 407.019 474.418 400.618C469.456 388.183 461.434 377.953 452.539 368.492C433.034 347.746 410.171 331.543 386.806 316.057C384.206 314.334 381.651 312.537 379.074 310.773C378.771 310.105 378.468 309.437 378.164 308.768C380.889 306.952 383.613 305.136 386.338 303.32C369.358 301.372 362.79 315.968 351.785 324.004C353.909 326.734 355.539 328.828 357.2 330.963C361.536 327.035 365.737 323.582 369.512 319.678C371.803 317.308 373.689 317.448 375.982 319.186C395.353 333.867 415.123 348.016 433.942 363.436C444.363 371.976 453.47 382.439 459.04 395.477C464.984 409.387 460.319 420.623 445.957 423.483C435.65 425.535 424.835 424.802 413.339 425.198ZM484.554 158.112C484.83 153.432 485.545 148.727 485.303 144.076C484.425 127.203 474.323 117.123 457.531 116.081C438.234 114.883 420.443 121.159 402.909 128.464C395.744 131.449 395.576 132.3 398.615 140.652C399.361 140.334 400.102 140.017 400.843 139.703C416.475 133.07 432.282 127.03 449.51 127.65C467.523 128.298 477.095 140.624 473.375 159.027C471.603 167.793 469.171 176.668 465.479 184.71C450.78 216.716 429.266 243.641 406.187 269.297C403.992 271.737 401.743 274.124 398.538 277.599C404.136 277.169 408.357 281.152 412.221 276.126C427.518 256.23 443.546 236.907 458.07 216.415C470.258 199.218 480.129 180.392 484.554 158.112ZM152.819 393.124C154.836 376.107 163.068 361.766 171.258 346.812C168.966 345.203 166.742 343.642 164.098 341.787C160.399 348.455 156.676 354.432 153.65 360.773C147.409 373.855 141.269 387.088 141.244 402.186C141.217 418.949 149.893 429.16 165.8 431.577C182.275 434.081 197.821 429.402 213.34 424.741C220.803 422.5 221.524 420.432 218.306 412.32C216.92 412.819 215.528 413.343 214.122 413.822C201.41 418.153 188.515 421.488 175.004 420.519C159.622 419.415 151.946 410.177 152.819 393.124ZM240.356 373.899C236.172 373.877 234.275 371.861 233.743 367.316C232.277 354.784 230.348 342.312 228.602 329.816C227.316 331.242 226.854 332.768 226.617 334.331C224.92 345.507 223.223 356.683 221.627 367.874C221.105 371.537 219.242 373.326 215.757 373.748C211.791 374.228 207.861 375.017 203.909 375.63C195.092 376.996 186.271 378.335 177.452 379.686C189.424 382.044 201.299 383.704 213.18 385.315C220.745 386.34 221.377 386.728 222.489 394.73C223.828 404.371 224.797 414.068 225.989 423.731C226.154 425.062 226.682 426.344 227.043 427.648C227.46 427.651 227.877 427.653 228.294 427.655C228.695 426.102 229.243 424.572 229.472 422.992C230.965 412.665 232.602 402.353 233.73 391.981C234.181 387.834 236.058 386.133 239.615 385.644C245.889 384.781 252.161 383.906 258.438 383.067C264.529 382.252 270.625 381.477 276.718 380.684C276.708 380.304 276.697 379.923 276.686 379.542C264.857 377.738 253.029 375.934 240.356 373.899ZM216.911 166.774C215.32 167.082 213.729 167.39 212.137 167.698C219.826 169.641 227.39 170.583 234.945 171.594C242.524 172.608 242.698 172.853 243.7 180.693C244.729 188.734 245.813 196.767 246.873 204.803C248.834 197.174 249.959 189.534 251.064 181.89C252.399 172.658 252.404 172.754 261.443 171.518C267.508 170.688 273.533 169.534 279.576 168.525C272.294 166.736 265.208 166.166 258.248 164.859C254.958 164.241 252.049 162.602 251.6 157.868C250.878 150.242 249.284 142.707 248.059 135.133C247.645 135.112 247.232 135.091 246.818 135.07C246.474 136.453 246 137.817 245.809 139.223C244.989 145.251 244.004 151.273 243.565 157.335C243.237 161.883 241.073 163.581 237.048 164.032C230.597 164.757 224.177 165.78 216.911 166.774ZM343.302 172.334C355.579 164.745 367.819 157.088 380.151 149.599C385.446 146.384 387.02 142.976 385.334 134.723C363.898 148.872 342.879 162.672 321.948 176.615C316.891 179.983 316.501 182.95 319.608 188.992C327.294 183.552 334.975 178.116 343.302 172.334ZM263.297 388.729C256.502 392.695 249.697 396.641 242.916 400.633C237.146 404.029 236.032 406.517 236.922 414.52C248.038 408.31 259.073 402.41 269.818 395.981C272.979 394.089 275.346 393.976 278.542 395.437C284.32 398.08 290.306 400.227 297.242 402.994C296.442 397.995 297.068 392.583 294.992 390.965C291.27 388.064 285.975 386.397 281.242 386.142C275.553 385.836 269.764 387.542 263.297 388.729ZM275.268 226.74C279.816 222.669 284.078 218.163 288.987 214.643C294.533 210.666 294.267 205.119 294.791 197.94C282.471 208.863 271.153 218.898 259.504 229.226C262.122 231.566 264.075 233.312 266.085 235.109C269.222 232.251 271.978 229.739 275.268 226.74ZM186.828 309.944C183.742 314.129 180.656 318.315 177.393 322.741C179.995 324.536 182.018 325.932 184.305 327.511C191.087 318.582 197.681 309.898 204.485 300.938C195.027 298.901 195.027 298.902 189.733 306.093C188.924 307.192 188.107 308.285 186.828 309.944ZM271.704 456.904C272.854 448.474 267.087 442.487 260.396 445.272C256.679 446.819 254.592 449.781 254.671 454.088C254.749 458.391 256.894 461.327 260.725 462.604C265.542 464.209 269.068 462.157 271.704 456.904ZM329.825 342.485C322.709 345.952 321.557 352.386 322.043 360.459C330.252 353.701 338.083 347.255 346.358 340.443C343.802 338.174 341.719 336.324 339.506 334.36C336.282 337.066 333.332 339.543 329.825 342.485ZM422.47 386.206C422.831 381.084 420.337 377.85 415.911 376.472C412.167 375.305 409.026 376.935 406.911 380.326C404.098 384.834 405.728 390.585 410.412 393.126C415.304 395.779 419.701 393.527 422.47 386.206ZM212.867 277.952C216.757 277.432 221.56 278.231 224.346 276.118C230.153 271.713 234.894 265.768 240.073 260.456C239.913 259.772 239.753 259.089 239.593 258.406C236.307 258.406 231.851 256.972 229.95 258.669C223.705 264.243 218.389 270.954 212.867 277.952ZM152.809 261.589C155.094 254.757 152.981 249.5 147.49 248.643C143.147 247.964 139.891 249.916 138.494 254.165C137.297 257.808 137.898 261.386 141.318 263.772C145.408 266.627 149.072 266.052 152.809 261.589ZM105.592 350.763C107.965 352.368 110.338 353.973 112.203 355.234C114.181 353.598 116.793 351.435 119.198 349.444C114.983 350.453 112.877 347.614 112.409 344.188C109.782 346.053 107.278 347.82 104.801 349.629C104.719 349.689 104.917 350.169 105.592 350.763ZM292.024 377.628C292.827 377.267 294.322 376.907 294.323 376.546C294.324 374.057 294.013 371.568 293.728 368.195C290.038 370.674 287.239 372.554 283.811 374.857C286.979 375.875 289.18 376.582 292.024 377.628Z" fill="black"/>
<path d="M312.789 381.799C312.675 383.542 312.56 385.285 312.089 387.576C311.728 389.151 311.724 390.178 311.72 391.205C311.56 393.047 311.4 394.888 310.881 397.429C310.514 399.831 310.507 401.534 310.5 403.236C310.443 403.899 310.386 404.561 309.984 405.708C309.685 407.127 309.733 408.062 309.781 408.998C309.601 411.512 309.421 414.027 308.92 417.129C308.641 418.643 308.684 419.569 308.727 420.495C308.579 422.024 308.431 423.553 307.821 425.497C306.844 425.857 306.328 425.803 305.813 425.748C305.728 425.385 305.643 425.023 305.751 423.938C305.563 420.918 305.183 418.62 304.802 416.322C304.649 414.69 304.496 413.057 304.56 410.633C304.471 408.517 304.164 407.192 303.857 405.868C303.723 404.894 303.589 403.92 303.643 402.192C303.526 400.127 303.22 398.817 302.915 397.506C302.664 395.672 302.413 393.838 302.407 391.41C302.413 389.909 302.176 389.002 301.938 388.095C301.694 386.256 301.45 384.418 301.449 381.944C301.39 380.077 301.088 378.846 300.786 377.615C300.615 376.448 300.444 375.28 300.525 373.524C300.437 371.295 300.098 369.654 299.76 368.014C299.574 366.95 299.389 365.886 299.436 364.216C299.414 362.704 299.159 361.798 298.905 360.892C298.721 359.593 298.537 358.295 298.56 356.212C298.432 354.105 298.097 352.783 297.763 351.461C297.534 349.638 297.305 347.815 297.277 345.432C297.302 344.286 297.125 343.7 296.947 343.114C296.812 342.13 296.677 341.147 296.711 339.414C296.508 336.939 296.135 335.214 295.762 333.488C295.266 329.649 294.769 325.809 294.494 321.369C294.381 319.779 294.047 318.789 293.714 317.798C293.599 317.372 293.485 316.945 293.603 315.975C293.517 314.124 293.199 312.817 292.881 311.51C291.532 311.933 289.859 311.962 288.887 312.84C281.987 319.078 275.259 325.524 268.394 331.806C267.445 332.674 266.046 333.005 264.855 333.585C264.654 333.191 264.452 332.797 264.25 332.403C271.442 323.145 278.635 313.887 286.554 303.693C246.193 299.144 206.811 294.706 167.429 290.268C167.43 290.022 167.432 289.776 167.433 289.53C206.819 284.78 246.205 280.031 287.168 275.092C278.965 264.407 271.748 255.006 264.53 245.605C264.952 245.134 265.375 244.663 265.797 244.192C274.522 251.959 283.247 259.726 292.983 268.392C297.749 226.689 302.375 186.205 307 145.721C307.137 145.745 307.274 145.77 307.411 145.795C311.927 186.229 316.442 226.664 321.088 268.26C323.208 266.771 324.302 266.194 325.171 265.361C332.277 258.556 339.304 251.658 346.46 244.911C347.498 243.933 349.095 243.603 350.434 242.974C350.667 243.424 350.9 243.874 351.134 244.324C343.391 254.127 335.649 263.93 327.006 274.874C367.37 279.936 406.586 284.854 445.803 289.772C445.814 289.996 445.826 290.221 445.837 290.445C406.783 294.779 367.729 299.113 327.525 303.574C335.608 314.259 343.049 324.095 350.49 333.931C350.111 334.333 349.732 334.734 349.353 335.136C340.368 326.882 331.382 318.627 321.543 309.589C321.132 312.337 320.869 314.1 320.186 316.422C319.73 318.354 319.693 319.729 319.655 321.103C319.519 322.615 319.383 324.127 318.926 326.135C318.688 327.24 318.771 327.849 318.854 328.457C318.755 329.528 318.657 330.599 318.156 332.18C317.726 334.058 317.698 335.427 317.67 336.795C317.548 337.969 317.426 339.143 316.955 340.911C316.611 343.419 316.617 345.334 316.623 347.248C316.614 347.686 316.604 348.124 316.199 349.013C315.775 351.171 315.747 352.879 315.72 354.586C315.595 355.758 315.47 356.93 314.987 358.64C314.697 360.444 314.765 361.71 314.833 362.976C314.722 364.719 314.612 366.463 314.084 368.83C313.599 370.942 313.53 372.43 313.462 373.919C313.42 374.911 313.377 375.904 312.976 377.456C312.674 379.276 312.732 380.538 312.789 381.799Z" fill="#F5F5F5"/>
<path d="M97.5259 220.285C108.041 216.117 118.625 215.229 129.345 215.782C157.669 217.245 184.943 224.239 211.818 233.225C220.195 236.026 228.525 238.982 236.878 241.863C244.034 244.331 244.035 244.328 249.999 238.614C252.022 241.51 257.413 242.502 253.525 248.575C261.759 251.215 266.735 257.286 270.753 266.319C264.433 263.483 259.19 261.002 253.856 258.758C218.579 243.914 182.693 231.189 144.58 227.352C135.406 226.428 125.825 226.606 116.783 228.315C100.22 231.444 95.2008 243.916 103.313 259.432C111.782 275.632 124.332 288.106 137.741 299.676C161.04 319.779 186.255 336.948 212.805 351.922C217.32 354.467 218.922 356.938 216.948 361.833C216.391 363.215 216.133 364.73 215.482 367.125C203.367 359.718 191.624 352.911 180.239 345.502C153.653 328.197 127.853 309.747 106.071 285.902C96.3943 275.309 87.0612 264.351 83.215 249.732C79.5603 235.842 84.3697 225.972 97.5259 220.285Z" fill="#F2F2F1"/>
<path d="M413.793 425.255C424.835 424.802 435.65 425.536 445.957 423.483C460.319 420.623 464.984 409.388 459.04 395.477C453.469 382.439 444.363 371.976 433.941 363.436C415.123 348.016 395.353 333.867 375.981 319.186C373.689 317.448 371.803 317.308 369.511 319.678C365.736 323.582 361.535 327.035 357.2 330.963C355.539 328.829 353.909 326.734 351.785 324.004C362.789 315.968 369.358 301.372 386.337 303.32C383.613 305.136 380.888 306.952 378.164 308.768C378.467 309.437 378.771 310.105 379.074 310.774C381.65 312.537 384.206 314.334 386.806 316.057C410.171 331.543 433.033 347.746 452.539 368.492C461.434 377.953 469.456 388.183 474.418 400.618C476.972 407.019 478.259 413.66 476.439 420.493C474.892 426.307 471.232 430.458 466.141 433.308C457.34 438.235 447.782 439.279 438.057 439.344C409.764 439.532 382.587 432.87 355.751 424.346C344.311 420.712 333.054 416.446 321.605 412.848C317.593 411.587 315.386 410.086 316.796 405.311C317.315 403.556 317.111 401.569 317.298 398.782C348.909 410.733 380.299 421.354 413.793 425.255Z" fill="#F1F1F1"/>
<path d="M484.458 158.547C480.129 180.392 470.259 199.217 458.07 216.415C443.546 236.907 427.518 256.23 412.221 276.126C408.357 281.152 404.136 277.169 398.538 277.599C401.743 274.124 403.992 271.737 406.187 269.297C429.267 243.641 450.78 216.716 465.479 184.71C469.171 176.668 471.603 167.793 473.375 159.027C477.095 140.624 467.523 128.298 449.51 127.65C432.282 127.03 416.475 133.07 400.843 139.703C400.102 140.017 399.361 140.334 398.615 140.652C395.576 132.3 395.744 131.448 402.909 128.464C420.443 121.159 438.234 114.883 457.531 116.081C474.323 117.123 484.425 127.203 485.303 144.076C485.545 148.727 484.83 153.432 484.458 158.547Z" fill="#F0F0EF"/>
<path d="M152.776 393.6C151.946 410.177 159.622 419.415 175.004 420.519C188.515 421.488 201.41 418.153 214.122 413.823C215.528 413.344 216.919 412.819 218.306 412.32C221.524 420.432 220.803 422.5 213.34 424.741C197.821 429.402 182.275 434.081 165.8 431.577C149.893 429.16 141.217 418.949 141.244 402.186C141.269 387.088 147.409 373.855 153.65 360.773C156.676 354.432 160.399 348.455 164.098 341.787C166.741 343.642 168.965 345.203 171.258 346.812C163.067 361.766 154.836 376.107 152.776 393.6Z" fill="#EFF0EF"/>
<path d="M367.708 206.782C366.401 206.594 365.094 206.407 363.126 205.894C361.23 205.542 359.995 205.514 358.759 205.487C357.757 205.383 356.754 205.279 355.18 204.85C353.978 204.558 353.349 204.591 352.719 204.623C348.427 204.09 344.134 203.557 339.504 202.71C339.225 202.046 339.282 201.696 339.34 201.347C339.709 201.299 340.078 201.251 340.866 201.368C341.856 201.313 342.428 201.092 343.001 200.871C343.994 200.718 344.988 200.564 346.634 200.474C347.857 200.294 348.428 200.049 349 199.804C350.752 199.576 352.504 199.349 354.786 199.264C355.877 199.176 356.438 198.945 356.999 198.713C364.087 197.669 371.229 196.903 378.234 195.425C380.605 194.925 382.629 192.625 385.124 190.542C385.426 189.292 385.416 188.649 385.407 188.005C385.522 187.295 385.638 186.585 386.076 185.254C386.468 183.336 386.539 182.038 386.609 180.74C386.704 180.015 386.798 179.29 387.165 177.967C387.391 176.727 387.345 176.084 387.299 175.442C387.441 174.407 387.583 173.372 388.053 171.681C388.44 169.723 388.499 168.422 388.558 167.12C388.672 166.401 388.786 165.683 389.177 164.309C389.47 162.364 389.486 161.074 389.501 159.784C389.828 155.736 390.154 151.688 390.48 147.639C391.038 147.629 391.597 147.619 392.155 147.609C393.178 154.664 394.23 161.715 395.214 168.776C396.054 174.796 397.058 180.806 397.54 186.86C398.001 192.641 400.416 195.342 406.129 196.006C418.346 197.427 430.495 199.5 442.67 201.32C443.64 201.466 444.595 201.721 445.639 202.624C443.881 202.888 442.125 203.171 440.364 203.412C428.341 205.059 416.327 206.783 404.288 208.291C400.102 208.816 398.261 211.044 397.751 215.308C396.184 228.415 394.423 241.497 392.717 254.586C392.52 256.101 392.193 257.599 390.957 259.119C390.576 255.066 390.195 251.014 389.89 246.123C389.586 244.076 389.206 242.866 388.826 241.657C388.644 239.821 388.463 237.985 388.399 235.591C388.288 234.312 388.058 233.591 387.828 232.87C387.065 227.47 386.302 222.07 385.637 215.955C385.426 214.496 385.117 213.753 384.808 213.009C384.446 209.126 381.716 208.583 378.139 207.997C376.247 207.654 374.995 207.645 373.744 207.637C373.06 207.501 372.375 207.366 371.086 206.927C369.557 206.676 368.632 206.729 367.708 206.782Z" fill="#EEEEEE"/>
<path d="M240.778 374.014C253.028 375.934 264.857 377.738 276.686 379.542C276.697 379.923 276.708 380.304 276.718 380.684C270.625 381.477 264.529 382.252 258.438 383.067C252.161 383.906 245.889 384.781 239.615 385.644C236.058 386.134 234.181 387.834 233.73 391.981C232.602 402.353 230.965 412.665 229.472 422.992C229.243 424.572 228.695 426.102 228.294 427.655C227.877 427.653 227.46 427.651 227.042 427.649C226.682 426.344 226.154 425.062 225.989 423.732C224.797 414.068 223.828 404.371 222.488 394.73C221.376 386.728 220.745 386.34 213.179 385.315C201.299 383.704 189.424 382.044 177.452 379.686C186.271 378.336 195.092 376.996 203.909 375.63C207.861 375.017 211.791 374.228 215.757 373.748C219.242 373.326 221.104 371.537 221.627 367.874C223.223 356.683 224.919 345.507 226.617 334.331C226.854 332.768 227.316 331.242 228.602 329.816C230.348 342.312 232.277 354.784 233.743 367.316C234.275 371.861 236.171 373.877 240.778 374.014Z" fill="#EDEDEC"/>
<path d="M217.327 166.725C224.177 165.78 230.597 164.757 237.048 164.033C241.073 163.581 243.236 161.883 243.565 157.335C244.003 151.273 244.988 145.251 245.809 139.223C246 137.817 246.474 136.453 246.818 135.07C247.232 135.091 247.645 135.112 248.059 135.133C249.284 142.707 250.878 150.242 251.6 157.868C252.048 162.602 254.958 164.241 258.247 164.859C265.207 166.166 272.294 166.736 279.576 168.525C273.533 169.534 267.508 170.688 261.443 171.518C252.404 172.754 252.399 172.658 251.064 181.89C249.959 189.534 248.834 197.174 246.872 204.803C245.813 196.767 244.728 188.734 243.7 180.693C242.697 172.853 242.524 172.608 234.945 171.594C227.39 170.583 219.826 169.641 212.137 167.698C213.728 167.39 215.32 167.082 217.327 166.725Z" fill="#EAEAEA"/>
<path d="M342.978 172.507C334.975 178.116 327.294 183.552 319.608 188.992C316.5 182.95 316.891 179.983 321.947 176.615C342.879 162.672 363.898 148.872 385.334 134.723C387.019 142.976 385.446 146.384 380.151 149.599C367.819 157.088 355.579 164.745 342.978 172.507Z" fill="#EDEDEC"/>
<path d="M263.658 388.553C269.764 387.543 275.553 385.836 281.242 386.143C285.975 386.397 291.27 388.064 294.992 390.965C297.068 392.583 296.442 397.995 297.242 402.994C290.306 400.227 284.32 398.08 278.541 395.437C275.346 393.976 272.979 394.089 269.818 395.981C259.073 402.41 248.038 408.31 236.922 414.52C236.032 406.517 237.146 404.03 242.916 400.633C249.697 396.641 256.502 392.695 263.658 388.553Z" fill="#EEEEED"/>
<path d="M275.001 226.984C271.978 229.739 269.222 232.251 266.085 235.109C264.075 233.312 262.122 231.566 259.504 229.226C271.153 218.898 282.471 208.863 294.791 197.94C294.267 205.119 294.533 210.666 288.987 214.643C284.078 218.163 279.816 222.669 275.001 226.984Z" fill="#EDEDEC"/>
<path d="M187.06 309.662C188.107 308.285 188.924 307.192 189.733 306.093C195.027 298.902 195.026 298.901 204.485 300.938C197.681 309.898 191.086 318.582 184.305 327.511C182.018 325.932 179.995 324.537 177.393 322.741C180.656 318.315 183.742 314.129 187.06 309.662Z" fill="#EBEBEB"/>
<path d="M271.594 457.306C269.068 462.157 265.542 464.209 260.725 462.604C256.894 461.327 254.749 458.391 254.671 454.088C254.592 449.781 256.679 446.819 260.396 445.272C267.087 442.487 272.854 448.474 271.594 457.306Z" fill="#EEEEEE"/>
<path d="M330.104 342.253C333.332 339.543 336.282 337.066 339.506 334.36C341.719 336.324 343.802 338.174 346.358 340.443C338.083 347.255 330.252 353.701 322.043 360.459C321.557 352.386 322.709 345.952 330.104 342.253Z" fill="#E9E9E9"/>
<path d="M422.437 386.595C419.701 393.527 415.304 395.779 410.412 393.126C405.728 390.585 404.098 384.834 406.911 380.326C409.026 376.935 412.166 375.305 415.911 376.472C420.337 377.85 422.831 381.084 422.437 386.595Z" fill="#F1F1F1"/>
<path d="M212.791 277.59C218.388 270.954 223.705 264.243 229.949 258.669C231.851 256.971 236.307 258.406 239.593 258.406C239.753 259.089 239.913 259.772 240.073 260.456C234.894 265.768 230.153 271.713 224.345 276.118C221.56 278.231 216.756 277.432 212.791 277.59Z" fill="#EBEBEB"/>
<path d="M152.548 261.887C149.072 266.051 145.408 266.627 141.318 263.772C137.898 261.386 137.297 257.808 138.494 254.165C139.891 249.916 143.147 247.964 147.49 248.642C152.981 249.5 155.094 254.756 152.548 261.887Z" fill="#EDEDEC"/>
<path d="M497.009 245.989C486.977 245.141 485.581 252.125 484.65 260.292C484.208 257.73 483.451 255.174 483.395 252.602C483.306 248.456 481.419 246.74 477.633 246.533C475.171 246.399 472.729 245.872 470.133 244.462C472.833 243.961 475.52 243.333 478.239 242.991C481.606 242.568 483.265 241.041 482.984 237.211C482.858 235.492 483.744 233.693 485.096 231.672C486.455 237.953 487.112 244.349 495.719 243.874C496.498 244.827 496.753 245.408 497.009 245.989Z" fill="#DADAD9"/>
<path d="M105.288 350.608C104.917 350.169 104.719 349.69 104.801 349.629C107.278 347.82 109.782 346.053 112.409 344.188C112.877 347.614 114.983 350.453 119.198 349.444C116.792 351.435 114.18 353.598 112.203 355.234C110.338 353.973 107.965 352.368 105.288 350.608Z" fill="#D0D0CF"/>
<path d="M291.701 377.458C289.179 376.582 286.979 375.875 283.811 374.857C287.238 372.554 290.037 370.674 293.727 368.195C294.013 371.568 294.323 374.057 294.322 376.546C294.322 376.907 292.827 377.267 291.701 377.458Z" fill="#DADAD9"/>
<path d="M305.651 426.077C306.328 425.803 306.843 425.857 307.746 425.875C308.133 429.203 308.133 432.568 308.133 435.933C307.618 435.976 307.103 436.018 306.588 436.06C306.222 432.842 305.856 429.624 305.651 426.077Z" fill="#A7A8A9"/>
<path d="M497.251 246.211C496.753 245.408 496.498 244.827 496.119 243.951C497.784 243.657 499.573 243.657 501.362 243.657C501.441 244.26 501.519 244.864 501.598 245.467C500.23 245.789 498.861 246.111 497.251 246.211Z" fill="#818181"/>
<path d="M304.612 416.641C305.183 418.62 305.563 420.918 305.774 423.657C305.21 421.718 304.816 419.339 304.612 416.641Z" fill="#A7A8A9"/>
<path d="M338.978 201.166C339.282 201.697 339.224 202.046 339.084 202.663C337.575 202.929 336.149 202.929 334.723 202.929C334.665 202.461 334.606 201.992 334.547 201.524C335.903 201.344 337.26 201.164 338.978 201.166Z" fill="#6E6D6D"/>
<path d="M316.87 346.994C316.617 345.334 316.611 343.419 316.87 341.256C317.13 342.917 317.123 344.828 316.87 346.994Z" fill="#A7A8A9"/>
<path d="M299.607 368.392C300.098 369.654 300.437 371.295 300.543 373.17C300.025 371.86 299.74 370.315 299.607 368.392Z" fill="#A7A8A9"/>
<path d="M295.582 333.848C296.135 335.214 296.508 336.939 296.698 339.041C296.144 337.681 295.773 335.944 295.582 333.848Z" fill="#A7A8A9"/>
<path d="M315.987 354.296C315.747 352.879 315.775 351.171 316.096 349.325C316.345 350.792 316.3 352.399 315.987 354.296Z" fill="#A7A8A9"/>
<path d="M310.752 403.024C310.507 401.534 310.514 399.831 310.797 397.817C311.051 399.274 311.028 401.042 310.752 403.024Z" fill="#A7A8A9"/>
<path d="M313.727 373.668C313.53 372.431 313.598 370.942 313.971 369.249C314.181 370.502 314.086 371.96 313.727 373.668Z" fill="#A7A8A9"/>
<path d="M302.746 397.767C303.22 398.817 303.526 400.127 303.646 401.822C303.166 400.814 302.872 399.421 302.746 397.767Z" fill="#A7A8A9"/>
<path d="M388.265 167.235C388.498 168.422 388.439 169.723 388.098 171.291C387.869 170.156 387.921 168.753 388.265 167.235Z" fill="#6E6D6D"/>
<path d="M315.024 362.728C314.765 361.71 314.697 360.445 314.896 358.982C315.181 360.017 315.198 361.248 315.024 362.728Z" fill="#A7A8A9"/>
<path d="M297.587 351.72C298.097 352.783 298.431 354.105 298.568 355.819C298.051 354.8 297.731 353.389 297.587 351.72Z" fill="#A7A8A9"/>
<path d="M303.693 406.133C304.164 407.192 304.47 408.517 304.576 410.226C304.093 409.206 303.811 407.802 303.693 406.133Z" fill="#A7A8A9"/>
<path d="M300.602 377.873C301.088 378.846 301.39 380.077 301.458 381.549C300.956 380.57 300.687 379.35 300.602 377.873Z" fill="#A7A8A9"/>
<path d="M389.227 159.924C389.486 161.074 389.47 162.364 389.206 163.946C388.955 162.846 388.954 161.455 389.227 159.924Z" fill="#6E6D6D"/>
<path d="M312.992 381.56C312.731 380.538 312.674 379.276 312.88 377.816C313.161 378.852 313.177 380.086 312.992 381.56Z" fill="#A7A8A9"/>
<path d="M317.939 336.523C317.698 335.427 317.726 334.059 318.032 332.562C318.276 333.707 318.242 334.979 317.939 336.523Z" fill="#A7A8A9"/>
<path d="M388.596 241.881C389.206 242.867 389.586 244.076 389.82 245.663C389.239 244.729 388.803 243.417 388.596 241.881Z" fill="#6E6D6D"/>
<path d="M373.87 207.934C374.995 207.645 376.247 207.654 377.749 207.965C376.665 208.256 375.331 208.244 373.87 207.934Z" fill="#6E6D6D"/>
<path d="M358.867 205.795C359.995 205.514 361.23 205.542 362.733 205.844C361.659 206.113 360.317 206.107 358.867 205.795Z" fill="#6E6D6D"/>
<path d="M292.729 311.87C293.199 312.817 293.517 314.124 293.617 315.641C293.125 314.644 292.851 313.437 292.729 311.87Z" fill="#A7A8A9"/>
<path d="M319.909 320.822C319.693 319.728 319.73 318.354 320.051 316.862C320.278 318.01 320.221 319.275 319.909 320.822Z" fill="#A7A8A9"/>
<path d="M386.313 180.846C386.539 182.038 386.468 183.336 386.114 184.896C385.892 183.756 385.954 182.354 386.313 180.846Z" fill="#6E6D6D"/>
<path d="M298.748 361.126C299.159 361.798 299.414 362.704 299.442 363.809C299.008 363.125 298.799 362.243 298.748 361.126Z" fill="#A7A8A9"/>
<path d="M293.54 318.123C294.047 318.789 294.381 319.779 294.486 320.939C293.96 320.222 293.663 319.334 293.54 318.123Z" fill="#A7A8A9"/>
<path d="M308.949 420.316C308.684 419.569 308.641 418.643 308.847 417.547C309.121 418.297 309.146 419.217 308.949 420.316Z" fill="#A7A8A9"/>
<path d="M367.846 207.033C368.632 206.729 369.557 206.676 370.741 206.882C369.995 207.189 368.99 207.237 367.846 207.033Z" fill="#6E6D6D"/>
<path d="M309.979 408.797C309.733 408.063 309.685 407.127 309.893 406.027C310.158 406.773 310.168 407.684 309.979 408.797Z" fill="#A7A8A9"/>
<path d="M301.782 388.326C302.175 389.002 302.413 389.909 302.424 391.013C302.008 390.325 301.817 389.441 301.782 388.326Z" fill="#A7A8A9"/>
<path d="M311.952 390.935C311.724 390.178 311.728 389.151 311.982 387.997C312.216 388.802 312.2 389.733 311.952 390.935Z" fill="#A7A8A9"/>
<path d="M296.801 343.293C297.125 343.7 297.302 344.286 297.284 345.035C296.944 344.623 296.799 344.048 296.801 343.293Z" fill="#A7A8A9"/>
<path d="M352.803 204.877C353.349 204.591 353.978 204.559 354.804 204.808C354.295 205.103 353.591 205.116 352.803 204.877Z" fill="#6E6D6D"/>
<path d="M384.648 213.288C385.117 213.753 385.426 214.496 385.57 215.515C385.1 215.049 384.794 214.308 384.648 213.288Z" fill="#6E6D6D"/>
<path d="M387.659 233.178C388.058 233.591 388.288 234.312 388.341 235.203C387.94 234.744 387.715 234.114 387.659 233.178Z" fill="#6E6D6D"/>
<path d="M387.084 175.552C387.345 176.084 387.391 176.727 387.201 177.603C386.933 177.112 386.9 176.388 387.084 175.552Z" fill="#6E6D6D"/>
<path d="M342.84 200.671C342.428 201.092 341.856 201.313 341.141 201.321C341.559 200.895 342.119 200.683 342.84 200.671Z" fill="#6E6D6D"/>
<path d="M348.872 199.588C348.429 200.049 347.857 200.294 346.998 200.373C347.388 199.928 348.066 199.65 348.872 199.588Z" fill="#6E6D6D"/>
<path d="M356.84 198.508C356.438 198.945 355.877 199.176 355.158 199.208C355.56 198.773 356.121 198.538 356.84 198.508Z" fill="#6E6D6D"/>
<path d="M385.177 188.092C385.416 188.649 385.426 189.293 385.193 190.163C384.949 189.653 384.948 188.915 385.177 188.092Z" fill="#6E6D6D"/>
<path d="M319.034 328.309C318.77 327.849 318.687 327.24 318.831 326.502C319.11 326.969 319.163 327.565 319.034 328.309Z" fill="#A7A8A9"/>
</g>
<defs>
<clipPath id="clip0_18_182">
<rect width="593" height="590" fill="white"/>
</clipPath>
</defs>
</svg>
