<svg width="569" height="586" viewBox="0 0 569 586" fill="none" xmlns="http://www.w3.org/2000/svg">
<path d="M499.187 -1.47557C503.563 -0.565516 507.932 0.473621 512.061 2.18628C538.869 13.3076 557.138 33.4471 565.205 64.2434C567.543 73.1703 568.839 82.7406 568.853 92.0188C569.062 224.42 569.012 356.821 568.923 489.223C568.893 535.045 544.039 570.754 503.562 582.798C496.39 584.932 488.682 585.775 481.219 585.785C350.18 585.966 219.14 586.163 88.1023 585.78C51.246 585.673 23.7666 567.385 7.54469 530.78C2.40037 519.172 0.152482 506.619 0.144288 493.761C0.0582619 358.569 -0.127447 223.376 0.135476 88.184C0.23419 37.4226 38.4398 -3.74653 85.213 -3.83365C217.695 -4.08039 350.178 -4.02773 482.661 -3.838C488.124 -3.83018 493.585 -2.64053 499.187 -1.47557ZM476.342 239.562C475.992 239.542 475.638 239.553 475.289 239.578C470.404 239.917 468.511 237.217 467.408 233.55C466.775 231.445 463.908 231.043 464.063 233.236C464.334 237.068 462.737 238.597 459.496 239.02C459.377 239.036 459.258 239.052 459.139 239.068C456.572 239.429 456.325 242.417 458.913 242.564C462.557 242.771 464.372 244.488 464.459 248.637C464.485 249.885 466.674 249.858 467.067 248.673C468.456 244.479 471.196 241.765 477.481 242.401C477.838 242.437 478.205 242.42 478.553 242.335C479.397 242.128 480.242 241.921 481.086 241.715C481.594 241.591 481.928 241.106 481.863 240.587C481.798 240.072 481.361 239.687 480.842 239.685C479.527 239.682 478.137 239.663 476.342 239.562ZM370.488 181.869C370.423 182.284 370.358 182.699 370.204 183.149C369.964 183.854 369.721 184.32 369.705 185.064C369.679 186.228 369.028 187.529 368.135 188.276C366.557 189.596 365.002 191.041 363.251 191.426C357.29 192.733 351.227 193.484 344.977 194.078C343.343 194.233 341.755 194.685 340.174 195.124C339.128 195.265 338.081 195.407 336.976 195.444C335.594 195.492 334.434 195.586 333.14 196.074C332.676 196.249 331.966 196.461 331.475 196.525C331.267 196.552 331.056 196.575 330.837 196.589C329.656 196.665 328.598 196.681 327.468 197.033C327.179 197.123 326.735 197.246 326.433 197.242C326.271 197.24 326.075 197.22 325.814 197.167C325.353 197.073 324.881 197.022 324.414 197.086C323.591 197.199 322.768 197.313 321.944 197.426C321.535 197.482 321.246 197.857 321.295 198.267C321.341 198.648 321.664 198.934 322.048 198.935C323.215 198.937 324.475 198.95 326.301 199.029C329.562 199.45 332.823 199.871 336.162 200.541C337.958 200.901 339.785 201.087 341.614 201.181C343.741 201.411 345.848 202.087 347.986 202.165C348.403 202.181 348.853 202.201 349.347 202.226C349.861 202.303 350.375 202.38 350.908 202.491C352.587 202.841 354.28 203.213 355.995 203.223C356.142 203.224 356.294 203.225 356.454 203.228C356.786 203.233 357.033 203.248 357.357 203.326C358.594 203.622 359.864 204.241 361.136 204.265C361.886 204.279 362.732 204.302 363.775 204.341C365.713 204.513 367.558 204.822 368.539 206.433C369.663 208.278 369.737 210.593 370.281 212.683C370.901 217.246 371.521 221.809 371.945 226.742C372.103 228.577 372.502 230.381 372.92 232.175C372.99 232.909 373.06 233.643 373.101 234.406C373.236 236.863 373.433 239.333 374.066 241.711C374.144 242.003 374.225 242.313 374.308 242.644C374.367 242.875 374.406 243.112 374.428 243.35C374.636 245.656 374.845 247.962 375.053 250.268C375.212 252.022 376.97 252.369 377.189 250.621C378.831 237.525 380.526 224.435 382.034 211.32C382.525 207.054 384.296 204.825 388.325 204.3C399.911 202.79 411.474 201.065 423.045 199.417C423.687 199.326 424.328 199.229 424.968 199.129C426.231 198.931 426.527 197.521 425.264 197.325C413.547 195.503 401.855 193.429 390.097 192.007C384.599 191.342 382.274 188.64 381.831 182.856C381.367 176.798 380.4 170.784 379.593 164.761C378.681 157.959 377.708 151.166 376.758 144.37C376.695 143.92 376.306 143.588 375.852 143.596C375.389 143.605 375.01 143.964 374.974 144.424C374.707 147.832 374.416 151.254 373.785 154.855C373.647 155.647 373.567 156.448 373.566 157.252C373.564 158.289 373.554 159.432 373.515 160.947C373.262 162.609 372.6 164.229 372.52 165.909C372.487 166.614 372.444 167.399 372.385 168.325C372.362 168.502 372.339 168.679 372.313 168.857C372.043 170.749 371.634 172.645 371.583 174.556C371.375 176.218 370.709 177.835 370.623 179.508C370.587 180.203 370.544 180.972 370.488 181.869ZM302.726 354.198C303.01 351.428 303.573 348.676 303.809 345.901C303.842 345.506 303.882 345.092 303.929 344.653C303.954 343.396 304.428 342.174 304.443 340.917C304.459 339.584 304.499 338.149 304.611 336.404C304.886 333.653 305.424 330.916 305.764 328.173C305.781 328.036 305.799 327.895 305.819 327.751C305.849 327.406 305.88 327.061 305.922 326.706C306.118 325.049 306.318 323.377 306.481 321.717C306.495 321.555 306.509 321.394 306.524 321.232C306.803 318.122 307.336 315.025 307.788 311.936C308.166 309.307 311.357 308.204 313.278 310.039C320.758 317.182 327.785 323.894 334.799 330.592C335.159 330.936 335.731 330.915 336.066 330.547C336.348 330.236 336.373 329.771 336.126 329.432C333.903 326.376 331.678 323.318 329.434 320.234C322.737 311.031 328.444 298.024 339.75 296.72C369.502 293.287 398.731 289.915 427.958 286.543C428.157 286.52 428.305 286.347 428.295 286.146C428.286 285.962 428.146 285.811 427.964 285.787C399.446 282.069 370.928 278.35 341.931 274.57C329.469 272.945 323.416 258.458 331.018 248.451C332.962 245.892 334.89 243.353 336.817 240.816C337.033 240.533 337.069 240.152 336.91 239.833C336.68 239.373 336.122 239.182 335.645 239.374C334.576 239.803 333.457 240.171 332.671 240.941C325.784 247.692 319.021 254.594 312.182 261.404C310.643 262.936 307.962 261.603 307.73 259.442C303.449 219.585 299.278 180.756 295.107 141.929C295.097 141.832 295.024 141.754 294.929 141.736C294.803 141.712 294.683 141.801 294.669 141.928C291.058 174.783 287.447 207.64 283.764 241.149C282.705 250.785 271.125 255.108 264.01 248.523C261.253 245.971 258.532 243.453 255.814 240.938C255.391 240.546 254.729 240.584 254.352 241.02C254.042 241.38 254.022 241.907 254.304 242.289C256.446 245.19 258.59 248.094 260.764 251.038C267.408 260.035 261.911 272.857 250.814 274.248C220.295 278.074 190.515 281.808 160.737 285.541C160.53 285.567 160.374 285.743 160.373 285.952C160.372 286.164 160.53 286.343 160.741 286.368C189.914 289.786 219.089 293.205 248.695 296.674C260.383 298.043 266.198 311.56 259.154 320.988C257.377 323.365 255.613 325.726 253.849 328.086C253.667 328.331 253.637 328.657 253.771 328.931C253.971 329.337 254.465 329.503 254.881 329.326C255.829 328.924 256.819 328.573 257.54 327.887C264.147 321.601 270.622 315.152 277.263 308.91C278.949 307.326 281.178 309.694 281.497 311.986C281.524 312.18 281.551 312.381 281.577 312.591C281.897 313.829 281.817 315.151 282.113 316.395C282.222 316.854 282.333 317.389 282.446 318.045C282.698 320.075 282.951 322.105 283.152 324.241C283.53 328.256 284.016 332.263 284.629 336.25C284.662 336.501 284.696 336.753 284.724 337.01C284.911 338.691 284.988 340.398 285.143 342.082C285.179 342.38 285.215 342.678 285.25 342.978C285.637 346.344 285.928 349.735 286.373 353.093C286.412 353.379 286.451 353.664 286.486 353.954C286.771 356.266 286.934 358.606 287.191 360.922C287.627 363.523 287.718 366.179 288.054 368.794C288.111 369.239 288.167 369.711 288.221 370.22C288.593 372.866 288.717 375.561 289.058 378.212C289.078 378.367 289.098 378.527 289.118 378.692C289.222 379.509 289.327 380.327 289.405 381.186C289.615 383.495 289.834 385.811 290.039 388.121C290.085 388.468 290.13 388.815 290.174 389.166C290.582 392.459 290.854 395.779 291.283 399.069C291.584 401.346 291.625 403.664 291.94 405.939C292.008 406.43 292.074 406.962 292.138 407.553C292.468 411.222 292.551 414.926 293.034 418.579C293.128 419.286 293.219 420.022 293.307 420.796C293.332 420.905 293.357 421.015 293.373 421.142C293.49 422.071 293.293 423.019 293.395 423.95C293.668 426.446 293.941 428.943 294.214 431.439C294.261 431.864 294.638 432.174 295.064 432.138C295.472 432.103 295.785 431.762 295.785 431.353C295.786 428.223 295.795 425.046 295.929 421.218C295.973 420.747 296.017 420.276 296.073 419.795C296.35 417.426 296.695 415.052 296.852 412.673C296.956 411.165 297.059 409.657 297.245 408.062C297.505 405.83 297.661 403.583 297.899 401.348C298.035 399.696 298.548 398.073 298.595 396.415C298.625 395.371 298.677 394.224 298.775 392.85C298.843 392.038 298.911 391.225 299.017 390.367C299.314 387.96 299.636 385.549 299.935 383.143C299.963 382.702 299.991 382.261 300.025 381.812C300.249 378.877 300.541 375.938 300.792 373.005C300.888 370.648 301.455 368.323 301.71 365.978C301.765 365.47 301.832 364.919 301.914 364.309C301.942 363.849 301.97 363.389 302.005 362.92C302.22 360.014 302.487 357.103 302.726 354.198ZM92.7657 216.48C80.4341 221.991 75.8055 231.866 79.3228 245.765C83.0244 260.392 92.0066 271.356 101.319 281.956C122.282 305.815 147.113 324.276 172.699 341.591C182.198 348.019 191.956 353.992 201.982 360.297C204.276 361.741 207.048 360.459 208.029 357.932C209.929 353.034 208.386 350.562 204.041 348.015C178.489 333.032 154.222 315.853 131.799 295.738C118.894 284.161 106.816 271.68 98.6651 255.47C90.858 239.945 95.6881 227.466 111.629 224.335C120.331 222.625 129.552 222.447 138.38 223.371C175.061 227.211 209.598 239.943 243.549 254.795C243.853 254.929 244.157 255.063 244.461 255.197C249.892 257.606 254.953 252.267 250.353 248.506C249.832 248.081 249.294 247.679 248.737 247.303C246.133 245.544 245.583 240.79 243.603 238.351C241.67 235.972 238.021 236.916 235.473 238.619C233.299 240.074 231.753 239.52 227.209 237.891C219.17 235.009 211.153 232.051 203.091 229.248C177.226 220.256 150.977 213.258 123.718 211.795C113.402 211.241 103.215 212.13 92.7657 216.48ZM402.239 421.216C398.775 421.259 395.305 421.144 391.876 420.649C364.081 416.638 337.437 407.618 310.722 397.288C307.694 396.118 305.01 398.313 304.123 401.436C302.765 406.214 304.889 407.715 308.751 408.977C319.769 412.578 330.603 416.846 341.613 420.482C367.44 429.011 393.596 435.677 420.824 435.489C430.185 435.424 439.382 434.379 447.853 429.449C452.753 426.598 456.275 422.444 457.764 416.627C459.515 409.789 458.277 403.145 455.819 396.74C451.043 384.297 443.323 374.061 434.762 364.595C415.99 343.837 393.987 327.625 371.501 312.129C369.15 310.509 366.836 308.824 364.509 307.163C364.215 306.953 363.983 306.667 363.838 306.336C363.458 305.465 363.747 304.445 364.529 303.903C364.704 303.782 364.878 303.661 365.053 303.54C367.146 302.09 366.279 299.127 363.788 299.652C353.902 301.738 348.169 310.726 340.916 317.442C339.256 318.979 339.06 321.77 340.416 323.581C341.888 325.548 344.579 325.572 346.39 323.912C349.357 321.193 352.215 318.592 354.856 315.752C357.061 313.381 358.877 313.521 361.083 315.26C379.726 329.95 398.753 344.107 416.864 359.536C426.894 368.082 435.658 378.551 441.019 391.596C446.739 405.515 442.25 416.757 428.428 419.618C420.078 421.347 411.381 421.101 402.239 421.216ZM465.573 154.091C465.839 149.408 466.527 144.699 466.294 140.046C465.45 123.163 455.727 113.077 439.566 112.034C420.995 110.836 403.872 117.116 386.998 124.425C380.769 127.123 380.035 128.079 382.108 134.399C382.501 135.6 383.854 136.18 385.009 135.67C400.054 129.033 415.267 122.99 431.847 123.61C449.183 124.258 458.395 136.592 454.815 155.006C453.109 163.777 450.769 172.658 447.215 180.704C433.07 212.729 412.365 239.67 390.152 265.342C387.52 268.385 390.123 276.035 393.706 274.204C394.476 273.811 395.225 273.169 395.96 272.175C410.682 252.267 426.107 232.932 440.085 212.428C451.816 195.22 461.315 176.383 465.573 154.091ZM146.31 389.242C148.111 373.445 155.059 359.953 162.348 346.138C163.329 344.28 162.914 342.069 161.217 340.831C159.138 339.314 156.079 339.901 154.838 342.155C152.073 347.174 149.386 351.911 147.11 356.871C141.103 369.961 135.194 383.202 135.17 398.309C135.144 415.082 143.494 425.299 158.803 427.718C174.658 430.223 189.62 425.541 204.556 420.878C210.347 419.069 211.92 417.374 210.688 412.53C210.102 410.225 207.55 409.158 205.308 409.952C193.075 414.285 180.664 417.623 167.661 416.652C152.857 415.548 145.47 406.305 146.31 389.242ZM233.626 370.516C231.583 370.178 229.407 370.291 227.519 369.44C225.558 368.556 224.551 366.611 224.192 363.418C222.966 352.529 221.405 341.684 219.915 330.829C219.652 328.912 217.613 328.499 217.334 330.414C215.7 341.596 214.068 352.779 212.531 363.977C212.028 367.641 210.235 369.432 206.882 369.854C203.065 370.334 199.282 371.124 195.479 371.737C190.327 372.567 190.265 379.382 195.428 380.141C198.42 380.581 201.41 381.006 204.401 381.428C211.683 382.454 212.29 382.842 213.36 390.849C214.649 400.495 215.582 410.198 216.729 419.867C216.864 421.004 217.255 422.105 217.582 423.215C217.681 423.551 217.986 423.788 218.337 423.79C218.695 423.792 219.008 423.548 219.1 423.202C219.462 421.849 219.889 420.508 220.081 419.127C221.518 408.794 223.094 398.476 224.179 388.098C224.613 383.948 226.42 382.247 229.843 381.757C235.881 380.894 241.918 380.018 247.959 379.178C253.624 378.391 259.294 377.64 264.963 376.874C265.297 376.829 265.544 376.539 265.535 376.201C265.527 375.882 265.292 375.615 264.978 375.565C254.735 373.941 244.481 372.314 233.626 370.516ZM207.992 162.758C206.864 162.985 206.832 164.524 207.957 164.766C213.797 166.017 219.575 166.777 225.348 167.58C232.642 168.595 232.81 168.84 233.775 176.685C233.816 177.025 233.858 177.364 233.9 177.704C234.49 182.477 240.199 182.647 240.862 177.883C242.146 168.645 242.151 168.741 250.85 167.504C254.898 166.928 254.909 162.075 250.877 161.4C249.84 161.226 248.806 161.043 247.775 160.841C244.609 160.223 241.809 158.583 241.377 153.846C240.7 146.411 239.227 139.063 238.061 131.681C238.007 131.341 237.724 131.085 237.38 131.067C237.03 131.048 236.716 131.282 236.628 131.622C236.32 132.806 235.962 133.982 235.804 135.19C235.014 141.222 234.067 147.247 233.645 153.313C233.328 157.863 231.246 159.562 227.372 160.014C221.164 160.739 214.985 161.763 207.992 162.758ZM329.632 168.321C341.447 160.727 353.227 153.066 365.096 145.572C371.921 141.263 362.662 135.779 356.004 140.341C340.216 151.161 324.623 161.84 309.08 172.604C302.94 176.857 312.342 180.923 318.369 176.512C322.025 173.836 325.756 171.119 329.632 168.321ZM266.828 382.278C257.301 382.892 248.45 387.372 240.289 392.326C237.864 393.798 235.44 395.273 233.02 396.755C226.472 400.762 234.757 406.334 241.409 402.5C247.306 399.101 253.152 395.683 258.911 392.1C261.953 390.207 264.231 390.094 267.306 391.556C269.427 392.565 271.577 393.501 273.795 394.427C278.826 396.527 287.373 390.514 283.138 387.081C279.556 384.179 274.46 382.511 269.905 382.256C268.884 382.199 267.859 382.212 266.828 382.278ZM264.156 222.759C268.532 218.686 272.635 214.177 277.359 210.655C282.638 206.72 274.315 201.896 269.474 206.359C263.714 211.669 258.075 216.867 252.387 222.11C250.552 223.801 250.758 226.895 252.586 228.594C254.241 230.132 256.595 229.923 258.235 228.369C260.154 226.551 262.04 224.764 264.156 222.759ZM179.04 306.012C176.827 309.132 174.615 312.253 172.332 315.472C171.02 317.322 171.562 319.966 173.405 321.288C175.243 322.607 177.689 322.116 179.024 320.289C181.345 317.111 183.648 313.957 185.953 310.803C190.712 304.287 186.499 295.574 181.836 302.159C181.058 303.259 180.271 304.352 179.04 306.012ZM250.685 458.931C258.871 461.324 263.771 445.995 256.425 441.664C254.561 440.566 252.265 440.372 249.843 441.42C246.265 442.969 244.257 445.932 244.332 450.242C244.408 454.547 246.473 457.485 250.16 458.763C250.337 458.824 250.512 458.88 250.685 458.931ZM317.578 337.774C316.969 338.305 316.209 338.787 315.521 339.21C308.667 343.427 317.964 349.033 324.078 343.8C325.638 342.465 327.203 341.126 328.781 339.775C330.799 338.048 330.743 334.84 328.791 333.039C327.126 331.502 324.685 331.572 322.978 333.062C321.229 334.588 319.481 336.113 317.578 337.774ZM398.568 390.278C406.024 389.388 407.595 376.169 400.759 373.061C400.363 372.881 399.947 372.72 399.512 372.579C395.907 371.412 392.885 373.043 390.849 376.436C388.142 380.947 389.711 386.702 394.219 389.243C395.729 390.095 397.191 390.442 398.568 390.278ZM211.067 265.03C208.429 268.278 211.861 274.758 215.148 272.167C220.523 267.927 224.948 262.264 229.713 257.108C230.068 256.723 230.215 256.188 230.099 255.677C229.937 254.956 229.296 254.446 228.559 254.383C225.601 254.127 222.136 253.226 220.541 254.707C217.166 257.839 214.072 261.331 211.067 265.03ZM135.241 259.813C142.105 264.795 151.139 250.671 144.169 245.838C143.335 245.26 142.336 244.862 141.181 244.675C137.002 243.996 133.868 245.949 132.524 250.201C131.371 253.846 131.95 257.425 135.241 259.813ZM100.858 346.855C102.684 348.139 104.51 349.423 106.086 350.532C106.754 351.001 107.654 350.957 108.272 350.425C108.412 350.304 108.554 350.182 108.698 350.058C110.014 348.926 108.977 344.565 108.208 343.008C107.653 341.883 106.18 341.19 105.17 341.936C103.445 343.209 101.765 344.455 100.097 345.721C100.018 345.781 100.208 346.261 100.858 346.855ZM278.903 373.218C279.786 373.544 280.778 373.548 281.653 373.205C282.121 373.021 282.494 372.838 282.494 372.654C282.494 371.691 282.45 370.729 282.379 369.715C282.212 367.312 279.333 366.105 277.358 367.485C275.255 368.954 275.835 372.103 278.246 372.978C278.463 373.057 278.682 373.137 278.903 373.218Z" fill="white"/>
</svg>
