<svg width="67" height="76" viewBox="0 0 67 76" fill="none" xmlns="http://www.w3.org/2000/svg">
<path d="M35.3405 49.1811C35.3275 49.4056 35.3146 49.6302 35.2613 49.9252C35.2206 50.1281 35.2201 50.2604 35.2197 50.3927C35.2016 50.6299 35.1835 50.8672 35.1248 51.1945C35.0835 51.5038 35.0826 51.7232 35.0818 51.9425C35.0754 52.0278 35.069 52.1132 35.0235 52.2609C34.9898 52.4437 34.9952 52.5642 35.0005 52.6846C34.9802 53.0085 34.96 53.3325 34.9033 53.7321C34.8718 53.9271 34.8766 54.0464 34.8815 54.1657C34.8647 54.3626 34.848 54.5595 34.7791 54.8099C34.6687 54.8564 34.6105 54.8493 34.5523 54.8423C34.5427 54.7956 34.5331 54.7489 34.5453 54.6091C34.524 54.2201 34.481 53.9241 34.438 53.6281C34.4208 53.4178 34.4035 53.2075 34.4107 52.8953C34.4006 52.6227 34.3659 52.4521 34.3313 52.2815C34.3162 52.156 34.301 52.0306 34.3071 51.8079C34.2938 51.542 34.2593 51.3732 34.2248 51.2044C34.1965 50.9681 34.1681 50.7319 34.1674 50.4191C34.1681 50.2258 34.1413 50.1089 34.1145 49.992C34.0869 49.7553 34.0593 49.5185 34.0592 49.1998C34.0525 48.9593 34.0184 48.8007 33.9843 48.6421C33.965 48.4918 33.9457 48.3414 33.9548 48.1152C33.9449 47.828 33.9066 47.6167 33.8683 47.4054C33.8474 47.2683 33.8264 47.1312 33.8317 46.9162C33.8293 46.7214 33.8005 46.6047 33.7718 46.4879C33.751 46.3207 33.7302 46.1535 33.7327 45.8852C33.7183 45.6137 33.6805 45.4434 33.6428 45.2731C33.6168 45.0383 33.5909 44.8035 33.5879 44.4965C33.5907 44.3489 33.5706 44.2734 33.5506 44.1979C33.5353 44.0712 33.52 43.9445 33.5239 43.7213C33.501 43.4025 33.4588 43.1803 33.4167 42.958C33.3606 42.4634 33.3045 41.9688 33.2733 41.3969C33.2606 41.192 33.2229 41.0645 33.1852 40.9369C33.1723 40.882 33.1593 40.8271 33.1727 40.702C33.163 40.4636 33.1271 40.2953 33.0911 40.127C32.9388 40.1813 32.7497 40.1851 32.6399 40.2983C31.8603 41.1018 31.1001 41.9321 30.3245 42.7412C30.2172 42.8531 30.0592 42.8958 29.9247 42.9705C29.9019 42.9198 29.8791 42.869 29.8563 42.8182C30.6689 41.6256 31.4815 40.4331 32.3763 39.12C27.8161 38.5341 23.3665 37.9623 18.917 37.3906C18.9171 37.3589 18.9173 37.3272 18.9174 37.2956C23.3674 36.6838 27.8175 36.072 32.4457 35.4357C31.5189 34.0594 30.7034 32.8484 29.8879 31.6374C29.9356 31.5768 29.9833 31.5161 30.0311 31.4555C31.0169 32.456 32.0027 33.4564 33.1027 34.5728C33.6411 29.2008 34.1638 23.9859 34.6864 18.771C34.7019 18.7742 34.7173 18.7773 34.7328 18.7805C35.243 23.9891 35.7532 29.1976 36.2781 34.5557C36.5176 34.3639 36.6412 34.2896 36.7394 34.1823C37.5423 33.3057 38.3362 32.4172 39.1447 31.5481C39.262 31.422 39.4425 31.3796 39.5937 31.2985C39.6201 31.3565 39.6465 31.4145 39.6728 31.4724C38.7981 32.7352 37.9233 33.998 36.9467 35.4077C41.5072 36.0597 45.9381 36.6932 50.369 37.3267C50.3703 37.3556 50.3716 37.3846 50.3729 37.4135C45.9603 37.9717 41.5478 38.53 37.0054 39.1047C37.9187 40.481 38.7594 41.748 39.6001 43.015C39.5573 43.0668 39.5145 43.1185 39.4717 43.1702C38.4564 42.107 37.4412 41.0437 36.3295 39.8794C36.2831 40.2334 36.2533 40.4606 36.1762 40.7597C36.1247 41.0085 36.1205 41.1856 36.1162 41.3626C36.1009 41.5574 36.0855 41.7521 36.0338 42.0108C36.0069 42.1531 36.0163 42.2315 36.0256 42.3099C36.0145 42.4479 36.0034 42.5858 35.9469 42.7895C35.8983 43.0315 35.8951 43.2077 35.8919 43.3839C35.8782 43.5352 35.8644 43.6864 35.8111 43.9142C35.7723 44.2372 35.7729 44.4838 35.7736 44.7304C35.7726 44.7868 35.7715 44.8432 35.7257 44.9578C35.6778 45.2358 35.6747 45.4558 35.6716 45.6757C35.6574 45.8267 35.6433 45.9776 35.5888 46.1979C35.556 46.4303 35.5637 46.5933 35.5714 46.7564C35.5589 46.981 35.5464 47.2055 35.4868 47.5105C35.4319 47.7826 35.4242 47.9743 35.4164 48.166C35.4117 48.2939 35.4069 48.4218 35.3615 48.6216C35.3274 48.8561 35.3339 49.0186 35.3405 49.1811Z" fill="#F5F5F5"/>
<path d="M11.0191 28.3756C12.2071 27.8386 13.403 27.7242 14.6141 27.7955C17.8143 27.9839 20.8958 28.8848 23.9323 30.0424C24.8789 30.4032 25.82 30.784 26.7638 31.1551C27.5722 31.473 27.5723 31.4726 28.2462 30.7366C28.4748 31.1096 29.0839 31.2374 28.6446 32.0197C29.575 32.3597 30.1371 33.1418 30.5911 34.3053C29.8771 33.94 29.2847 33.6204 28.682 33.3313C24.6962 31.4192 20.6416 29.7801 16.3354 29.2858C15.299 29.1669 14.2164 29.1898 13.1948 29.4098C11.3234 29.813 10.7564 31.4194 11.6729 33.4182C12.6298 35.505 14.0477 37.1118 15.5628 38.6022C18.1952 41.1917 21.0441 43.4033 24.0439 45.3321C24.554 45.66 24.7351 45.9782 24.512 46.6088C24.449 46.7869 24.4199 46.982 24.3463 47.2905C22.9775 46.3363 21.6507 45.4596 20.3644 44.5051C17.3606 42.2761 14.4456 39.8994 11.9845 36.8278C10.8912 35.4633 9.83672 34.0518 9.40217 32.1687C8.98924 30.3794 9.53263 29.1081 11.0191 28.3756Z" fill="#F2F2F1"/>
<path d="M46.7522 54.7784C47.9999 54.7201 49.2217 54.8146 50.3863 54.5502C52.009 54.1818 52.536 52.7346 51.8645 50.9427C51.2351 49.2633 50.2062 47.9155 49.0287 46.8154C46.9025 44.8291 44.6688 43.0065 42.4801 41.1154C42.2211 40.8916 42.008 40.8735 41.7491 41.1787C41.3226 41.6816 40.848 42.1264 40.3581 42.6324C40.1705 42.3575 39.9863 42.0877 39.7463 41.736C40.9896 40.7009 41.7317 38.8206 43.6502 39.0716C43.3424 39.3056 43.0346 39.5395 42.7267 39.7734C42.761 39.8595 42.7953 39.9456 42.8295 40.0317C43.1206 40.2589 43.4094 40.4904 43.7032 40.7124C46.3431 42.7072 48.9261 44.7943 51.13 47.4667C52.135 48.6853 53.0413 50.0031 53.602 51.605C53.8906 52.4294 54.0359 53.2849 53.8304 54.1651C53.6555 54.914 53.242 55.4487 52.6667 55.8158C51.6724 56.4505 50.5925 56.585 49.4937 56.5934C46.2971 56.6176 43.2264 55.7594 40.1944 54.6614C38.9018 54.1933 37.63 53.6438 36.3364 53.1803C35.8831 53.0179 35.6338 52.8246 35.7931 52.2094C35.8517 51.9834 35.8287 51.7274 35.8498 51.3684C39.4213 52.9078 42.968 54.276 46.7522 54.7784Z" fill="#F1F1F1"/>
<path d="M54.7364 20.4228C54.2473 23.2367 53.132 25.6617 51.7549 27.877C50.1139 30.5166 48.303 33.0057 46.5747 35.5686C46.1381 36.216 45.6612 35.7029 45.0287 35.7583C45.3908 35.3107 45.6449 35.0033 45.8929 34.689C48.5006 31.384 50.9313 27.9158 52.592 23.7929C53.0092 22.757 53.2839 21.6138 53.4841 20.4846C53.9045 18.114 52.8229 16.5263 50.7878 16.4428C48.8413 16.363 47.0553 17.141 45.2891 17.9954C45.2054 18.0359 45.1217 18.0767 45.0375 18.1176C44.6941 17.0418 44.713 16.9321 45.5225 16.5477C47.5036 15.6067 49.5137 14.7983 51.694 14.9526C53.5912 15.0869 54.7327 16.3853 54.8318 18.5587C54.8592 19.1578 54.7784 19.7639 54.7364 20.4228Z" fill="#F0F0EF"/>
<path d="M17.2614 50.701C17.1676 52.8364 18.0349 54.0264 19.7728 54.1686C21.2994 54.2935 22.7564 53.8638 24.1925 53.306C24.3514 53.2443 24.5086 53.1768 24.6653 53.1125C25.0289 54.1573 24.9475 54.4238 24.1042 54.7125C22.3508 55.3129 20.5943 55.9155 18.7329 55.5931C16.9357 55.2817 15.9554 53.9664 15.9585 51.8071C15.9613 49.8622 16.655 48.1576 17.3602 46.4725C17.702 45.6557 18.1227 44.8858 18.5406 44.0269C18.8393 44.2659 19.0906 44.4669 19.3496 44.6742C18.4242 46.6004 17.4942 48.4477 17.2614 50.701Z" fill="#EFF0EF"/>
<path d="M41.5455 26.6364C41.3978 26.6123 41.2502 26.5881 41.0278 26.5221C40.8136 26.4767 40.674 26.4732 40.5344 26.4696C40.4212 26.4562 40.3079 26.4428 40.13 26.3876C39.9943 26.35 39.9231 26.3542 39.852 26.3584C39.367 26.2897 38.882 26.221 38.3589 26.1119C38.3273 26.0264 38.3338 25.9814 38.3404 25.9363C38.3821 25.9302 38.4238 25.924 38.5128 25.9391C38.6247 25.9319 38.6893 25.9035 38.7539 25.8751C38.8662 25.8553 38.9785 25.8355 39.1645 25.824C39.3027 25.8007 39.3672 25.7691 39.4318 25.7376C39.6297 25.7083 39.8277 25.6789 40.0855 25.668C40.2088 25.6567 40.2722 25.6269 40.3355 25.5971C41.1364 25.4626 41.9433 25.3639 42.7348 25.1735C43.0027 25.1091 43.2313 24.8128 43.5132 24.5445C43.5474 24.3836 43.5463 24.3007 43.5452 24.2178C43.5582 24.1263 43.5713 24.0348 43.6208 23.8634C43.6651 23.6163 43.6731 23.4491 43.6811 23.2819C43.6917 23.1885 43.7024 23.0951 43.7438 22.9247C43.7694 22.7649 43.7642 22.6822 43.759 22.5994C43.7751 22.4661 43.7911 22.3328 43.8442 22.115C43.8879 21.8627 43.8945 21.6951 43.9012 21.5275C43.9141 21.4349 43.927 21.3423 43.9712 21.1653C44.0043 20.9148 44.0061 20.7486 44.0078 20.5824C44.0447 20.061 44.0816 19.5395 44.1184 19.0181C44.1815 19.0168 44.2446 19.0155 44.3076 19.0142C44.4232 19.923 44.5421 20.8312 44.6533 21.7408C44.7481 22.5162 44.8616 23.2904 44.9161 24.0703C44.9681 24.8149 45.2411 25.1628 45.8865 25.2484C47.2669 25.4314 48.6395 25.6985 50.015 25.9329C50.1247 25.9516 50.2326 25.9845 50.3506 26.1009C50.1519 26.1349 49.9535 26.1713 49.7546 26.2024C48.3961 26.4145 47.0387 26.6365 45.6785 26.8309C45.2055 26.8985 44.9976 27.1854 44.94 27.7347C44.7628 29.4231 44.5639 31.1082 44.3712 32.7942C44.3488 32.9895 44.312 33.1824 44.1723 33.3781C44.1293 32.8561 44.0862 32.3341 44.0517 31.7042C44.0174 31.4404 43.9744 31.2846 43.9315 31.1288C43.911 30.8923 43.8905 30.6559 43.8833 30.3475C43.8707 30.1827 43.8447 30.0898 43.8188 29.997C43.7326 29.3014 43.6464 28.6058 43.5712 27.818C43.5474 27.6302 43.5125 27.5344 43.4776 27.4386C43.4366 26.9384 43.1282 26.8684 42.724 26.793C42.5103 26.7487 42.3689 26.7477 42.2275 26.7466C42.1502 26.7291 42.0729 26.7117 41.9272 26.6551C41.7544 26.6228 41.6499 26.6296 41.5455 26.6364Z" fill="#EEEEEE"/>
<path d="M27.2042 48.1783C28.5883 48.4255 29.9248 48.6579 31.2613 48.8903C31.2625 48.9393 31.2637 48.9884 31.2649 49.0375C30.5764 49.1395 29.8877 49.2394 29.1996 49.3443C28.4904 49.4524 27.7817 49.5651 27.0728 49.6763C26.6709 49.7394 26.4588 49.9584 26.4079 50.4926C26.2805 51.8286 26.0955 53.157 25.9268 54.4873C25.901 54.6908 25.839 54.8878 25.7937 55.0879C25.7466 55.0876 25.6995 55.0873 25.6523 55.0871C25.6116 54.919 25.5519 54.7539 25.5333 54.5825C25.3986 53.3377 25.2891 52.0886 25.1378 50.8468C25.0121 49.816 24.9408 49.766 24.086 49.6339C22.7437 49.4264 21.402 49.2126 20.0493 48.9088C21.0458 48.7349 22.0424 48.5623 23.0386 48.3863C23.4851 48.3075 23.9292 48.2057 24.3772 48.1439C24.7709 48.0896 24.9814 47.8591 25.0405 47.3873C25.2208 45.9457 25.4125 44.5061 25.6042 43.0666C25.6311 42.8652 25.6832 42.6686 25.8285 42.4849C26.0258 44.0945 26.2437 45.7011 26.4094 47.3154C26.4695 47.9009 26.6838 48.1605 27.2042 48.1783Z" fill="#EDEDEC"/>
<path d="M24.5547 21.4766C25.3285 21.3548 26.0539 21.223 26.7828 21.1297C27.2375 21.0715 27.482 20.8528 27.5191 20.2671C27.5687 19.4861 27.6799 18.7105 27.7726 17.9339C27.7943 17.7528 27.8478 17.5771 27.8867 17.3989C27.9334 17.4017 27.9801 17.4044 28.0268 17.4071C28.1653 18.3827 28.3454 19.3534 28.4269 20.3356C28.4776 20.9455 28.8063 21.1566 29.178 21.2362C29.9644 21.4046 30.7651 21.4779 31.5878 21.7085C30.9051 21.8384 30.2243 21.9871 29.539 22.0939C28.5178 22.2532 28.5172 22.2408 28.3664 23.43C28.2416 24.4147 28.1145 25.3989 27.8928 26.3815C27.7731 25.3464 27.6506 24.3116 27.5344 23.2759C27.4211 22.266 27.4015 22.2344 26.5452 22.1038C25.6915 21.9735 24.837 21.8522 23.9683 21.6019C24.148 21.5623 24.3278 21.5226 24.5547 21.4766Z" fill="#EAEAEA"/>
<path d="M38.7515 22.2211C37.8472 22.9436 36.9794 23.6438 36.1109 24.3446C35.7598 23.5664 35.804 23.1841 36.3753 22.7503C38.7402 20.9542 41.115 19.1766 43.537 17.354C43.7274 18.4172 43.5496 18.8561 42.9514 19.2703C41.558 20.235 40.1751 21.2213 38.7515 22.2211Z" fill="#EDEDEC"/>
<path d="M29.7893 50.051C30.4793 49.9209 31.1333 49.701 31.7761 49.7405C32.3108 49.7734 32.9091 49.9881 33.3296 50.3617C33.5641 50.5702 33.4935 51.2672 33.5838 51.9113C32.8001 51.5548 32.1238 51.2782 31.4709 50.9378C31.1099 50.7496 30.8425 50.7642 30.4853 51.0078C29.2713 51.836 28.0246 52.596 26.7686 53.3959C26.668 52.365 26.7939 52.0446 27.4458 51.607C28.2119 51.0929 28.9808 50.5845 29.7893 50.051Z" fill="#EEEEED"/>
<path d="M31.0711 29.2384C30.7295 29.5933 30.418 29.9168 30.0636 30.2849C29.8365 30.0535 29.6159 29.8286 29.3201 29.5272C30.6362 28.1967 31.915 26.9041 33.307 25.4971C33.2478 26.4219 33.2779 27.1364 32.6512 27.6487C32.0966 28.1021 31.615 28.6826 31.0711 29.2384Z" fill="#EDEDEC"/>
<path d="M21.135 39.8886C21.2532 39.7112 21.3456 39.5705 21.437 39.4289C22.0351 38.5025 22.035 38.5025 23.1037 38.7649C22.3349 39.9191 21.5899 41.0376 20.8237 42.1878C20.5652 41.9844 20.3367 41.8046 20.0427 41.5733C20.4114 41.0032 20.76 40.4641 21.135 39.8886Z" fill="#EBEBEB"/>
<path d="M30.686 58.907C30.4006 59.5319 30.0022 59.7962 29.458 59.5894C29.0252 59.425 28.7828 59.0467 28.7739 58.4924C28.7651 57.9377 29.0008 57.5562 29.4208 57.3568C30.1768 56.998 30.8284 57.7693 30.686 58.907Z" fill="#EEEEEE"/>
<path d="M37.2966 44.0865C37.6613 43.7375 37.9947 43.4185 38.3589 43.0698C38.609 43.3229 38.8443 43.5611 39.1331 43.8535C38.1982 44.7309 37.3134 45.5613 36.3859 46.4317C36.331 45.3919 36.4611 44.5631 37.2966 44.0865Z" fill="#E9E9E9"/>
<path d="M47.7289 49.7986C47.4197 50.6916 46.923 50.9817 46.3702 50.6399C45.841 50.3126 45.6569 49.5718 45.9747 48.991C46.2136 48.5543 46.5685 48.3443 46.9916 48.4946C47.4916 48.6722 47.7734 49.0887 47.7289 49.7986Z" fill="#F1F1F1"/>
<path d="M24.0422 35.7575C24.6747 34.9027 25.2754 34.0383 25.9809 33.3202C26.1957 33.1016 26.6991 33.2863 27.0704 33.2863C27.0885 33.3743 27.1066 33.4623 27.1246 33.5504C26.5395 34.2347 26.0039 35.0004 25.3477 35.5679C25.033 35.8401 24.4903 35.7371 24.0422 35.7575Z" fill="#EBEBEB"/>
<path d="M17.2356 33.7347C16.8429 34.2712 16.4289 34.3454 15.9668 33.9776C15.5804 33.6702 15.5125 33.2094 15.6478 32.7401C15.8056 32.1927 16.1735 31.9413 16.6641 32.0287C17.2845 32.1392 17.5233 32.8163 17.2356 33.7347Z" fill="#EDEDEC"/>
<path d="M56.1545 31.6865C55.021 31.5773 54.8634 32.477 54.7582 33.529C54.7082 33.1989 54.6227 32.8697 54.6164 32.5384C54.6062 32.0043 54.3931 31.7833 53.9654 31.7567C53.6872 31.7393 53.4113 31.6714 53.1179 31.4898C53.4231 31.4253 53.7265 31.3444 54.0337 31.3004C54.4143 31.2459 54.6017 31.0491 54.57 30.5557C54.5557 30.3344 54.6558 30.1026 54.8085 29.8423C54.9621 30.6514 55.0363 31.4753 56.0088 31.414C56.0967 31.5368 56.1256 31.6117 56.1545 31.6865Z" fill="#DADAD9"/>
<path d="M11.8959 45.1629C11.854 45.1063 11.8317 45.0446 11.841 45.0368C12.1208 44.8038 12.4037 44.5761 12.7006 44.3359C12.7534 44.7772 12.9913 45.1429 13.4676 45.0129C13.1958 45.2694 12.9007 45.548 12.6772 45.7588C12.4665 45.5963 12.1984 45.3896 11.8959 45.1629Z" fill="#D0D0CF"/>
<path d="M32.958 48.6219C32.673 48.509 32.4244 48.418 32.0664 48.2869C32.4537 47.9902 32.7699 47.748 33.1868 47.4287C33.2191 47.8631 33.2542 48.1838 33.2541 48.5044C33.2541 48.5509 33.0851 48.5973 32.958 48.6219Z" fill="#DADAD9"/>
<path d="M34.5339 54.8847C34.6104 54.8493 34.6686 54.8563 34.7706 54.8585C34.8143 55.2872 34.8143 55.7207 34.8143 56.1542C34.7561 56.1597 34.6979 56.1651 34.6397 56.1706C34.5984 55.7561 34.557 55.3416 34.5339 54.8847Z" fill="#A7A8A9"/>
<path d="M56.1819 31.7152C56.1256 31.6118 56.0968 31.5369 56.054 31.4242C56.2421 31.3862 56.4443 31.3862 56.6464 31.3862C56.6552 31.4639 56.6641 31.5417 56.673 31.6194C56.5184 31.6608 56.3638 31.7023 56.1819 31.7152Z" fill="#818181"/>
<path d="M34.4165 53.6689C34.4809 53.9239 34.5239 54.2199 34.5477 54.5727C34.4841 54.323 34.4396 54.0165 34.4165 53.6689Z" fill="#A7A8A9"/>
<path d="M38.2994 25.9131C38.3338 25.9815 38.3273 26.0265 38.3114 26.1059C38.141 26.1403 37.9799 26.1403 37.8187 26.1403C37.8121 26.0799 37.8055 26.0195 37.7988 25.9592C37.9521 25.936 38.1053 25.9129 38.2994 25.9131Z" fill="#6E6D6D"/>
<path d="M35.8015 44.6976C35.7729 44.4838 35.7722 44.2372 35.8015 43.9585C35.8308 44.1725 35.8301 44.4187 35.8015 44.6976Z" fill="#A7A8A9"/>
<path d="M33.8511 47.4541C33.9066 47.6167 33.9448 47.828 33.9568 48.0696C33.8983 47.9008 33.8661 47.7018 33.8511 47.4541Z" fill="#A7A8A9"/>
<path d="M33.3962 43.0039C33.4588 43.1799 33.5009 43.4021 33.5224 43.6729C33.4598 43.4977 33.4178 43.2739 33.3962 43.0039Z" fill="#A7A8A9"/>
<path d="M35.7018 45.6379C35.6747 45.4554 35.6778 45.2354 35.7142 44.9976C35.7423 45.1866 35.7372 45.3935 35.7018 45.6379Z" fill="#A7A8A9"/>
<path d="M35.1102 51.9148C35.0825 51.7229 35.0833 51.5036 35.1153 51.2441C35.1439 51.4318 35.1414 51.6596 35.1102 51.9148Z" fill="#A7A8A9"/>
<path d="M35.4465 48.1336C35.4242 47.9742 35.432 47.7825 35.4741 47.5645C35.4978 47.7258 35.4871 47.9136 35.4465 48.1336Z" fill="#A7A8A9"/>
<path d="M34.2058 51.2378C34.2594 51.373 34.2939 51.5418 34.3074 51.7602C34.2532 51.6303 34.22 51.4508 34.2058 51.2378Z" fill="#A7A8A9"/>
<path d="M43.8682 21.542C43.8945 21.6948 43.8878 21.8625 43.8493 22.0645C43.8233 21.9182 43.8292 21.7375 43.8682 21.542Z" fill="#6E6D6D"/>
<path d="M35.5929 46.7241C35.5637 46.5931 35.556 46.43 35.5785 46.2417C35.6107 46.375 35.6126 46.5336 35.5929 46.7241Z" fill="#A7A8A9"/>
<path d="M33.6228 45.3062C33.6805 45.4431 33.7182 45.6134 33.7337 45.8342C33.6752 45.7029 33.639 45.5212 33.6228 45.3062Z" fill="#A7A8A9"/>
<path d="M34.3127 52.3154C34.366 52.4519 34.4006 52.6226 34.4126 52.8427C34.358 52.7113 34.3261 52.5304 34.3127 52.3154Z" fill="#A7A8A9"/>
<path d="M33.9634 48.6753C34.0183 48.8007 34.0524 48.9593 34.0602 49.1488C34.0034 49.0227 33.973 48.8656 33.9634 48.6753Z" fill="#A7A8A9"/>
<path d="M43.9768 20.6006C44.006 20.7487 44.0043 20.9149 43.9744 21.1186C43.9461 20.977 43.9459 20.7978 43.9768 20.6006Z" fill="#6E6D6D"/>
<path d="M35.3634 49.1502C35.334 49.0185 35.3275 48.856 35.3508 48.668C35.3825 48.8014 35.3844 48.9604 35.3634 49.1502Z" fill="#A7A8A9"/>
<path d="M35.9222 43.3486C35.895 43.2073 35.8982 43.0311 35.9328 42.8384C35.9603 42.9858 35.9565 43.1497 35.9222 43.3486Z" fill="#A7A8A9"/>
<path d="M43.9055 31.1577C43.9744 31.2847 44.0173 31.4405 44.0438 31.6449C43.9781 31.5245 43.9288 31.3556 43.9055 31.1577Z" fill="#6E6D6D"/>
<path d="M42.2417 26.7848C42.3688 26.7476 42.5103 26.7487 42.6799 26.7888C42.5575 26.8263 42.4067 26.8247 42.2417 26.7848Z" fill="#6E6D6D"/>
<path d="M40.5466 26.509C40.674 26.4729 40.8136 26.4764 40.9834 26.5153C40.862 26.55 40.7104 26.5493 40.5466 26.509Z" fill="#6E6D6D"/>
<path d="M33.074 40.1729C33.1271 40.2949 33.163 40.4632 33.1744 40.6587C33.1188 40.5302 33.0878 40.3747 33.074 40.1729Z" fill="#A7A8A9"/>
<path d="M36.1448 41.3264C36.1203 41.1856 36.1245 41.0086 36.1609 40.8164C36.1865 40.9642 36.18 41.1272 36.1448 41.3264Z" fill="#A7A8A9"/>
<path d="M43.6474 23.2954C43.673 23.4489 43.665 23.6161 43.6249 23.817C43.5999 23.6702 43.6069 23.4897 43.6474 23.2954Z" fill="#6E6D6D"/>
<path d="M33.7539 46.5181C33.8004 46.6046 33.8291 46.7213 33.8323 46.8636C33.7833 46.7756 33.7597 46.6619 33.7539 46.5181Z" fill="#A7A8A9"/>
<path d="M33.1655 40.9785C33.2228 41.0643 33.2605 41.1918 33.2724 41.3413C33.213 41.2489 33.1795 41.1346 33.1655 40.9785Z" fill="#A7A8A9"/>
<path d="M34.9066 54.1423C34.8766 54.0461 34.8718 53.9268 34.895 53.7856C34.926 53.8823 34.9289 54.0007 34.9066 54.1423Z" fill="#A7A8A9"/>
<path d="M41.561 26.6686C41.6499 26.6295 41.7543 26.6227 41.8881 26.6492C41.8038 26.6887 41.6902 26.6949 41.561 26.6686Z" fill="#6E6D6D"/>
<path d="M35.023 52.6585C34.9952 52.5639 34.9899 52.4435 35.0133 52.3018C35.0432 52.3979 35.0444 52.5152 35.023 52.6585Z" fill="#A7A8A9"/>
<path d="M34.0969 50.0215C34.1413 50.1086 34.1682 50.2254 34.1695 50.3676C34.1224 50.2791 34.1009 50.1652 34.0969 50.0215Z" fill="#A7A8A9"/>
<path d="M35.2458 50.3579C35.2201 50.2604 35.2205 50.1281 35.2492 49.9795C35.2756 50.0832 35.2738 50.2031 35.2458 50.3579Z" fill="#A7A8A9"/>
<path d="M33.5339 44.2207C33.5705 44.2731 33.5906 44.3486 33.5886 44.4451C33.5501 44.392 33.5338 44.3179 33.5339 44.2207Z" fill="#A7A8A9"/>
<path d="M39.8613 26.3908C39.923 26.3541 39.9941 26.3499 40.0874 26.382C40.03 26.42 39.9504 26.4217 39.8613 26.3908Z" fill="#6E6D6D"/>
<path d="M43.4595 27.4746C43.5124 27.5344 43.5473 27.6302 43.5636 27.7614C43.5105 27.7014 43.4759 27.606 43.4595 27.4746Z" fill="#6E6D6D"/>
<path d="M43.7996 30.0366C43.8446 30.0899 43.8706 30.1827 43.8767 30.2974C43.8313 30.2383 43.8059 30.1573 43.7996 30.0366Z" fill="#6E6D6D"/>
<path d="M43.7345 22.6138C43.764 22.6823 43.7692 22.765 43.7478 22.8779C43.7174 22.8147 43.7138 22.7214 43.7345 22.6138Z" fill="#6E6D6D"/>
<path d="M38.7357 25.8491C38.6891 25.9033 38.6245 25.9318 38.5437 25.9327C38.5909 25.878 38.6542 25.8507 38.7357 25.8491Z" fill="#6E6D6D"/>
<path d="M39.4173 25.7095C39.3672 25.7689 39.3026 25.8004 39.2056 25.8106C39.2497 25.7533 39.3262 25.7175 39.4173 25.7095Z" fill="#6E6D6D"/>
<path d="M40.3176 25.5703C40.2721 25.6266 40.2087 25.6564 40.1274 25.6605C40.1729 25.6045 40.2363 25.5741 40.3176 25.5703Z" fill="#6E6D6D"/>
<path d="M43.5191 24.2285C43.5462 24.3003 43.5473 24.3832 43.5209 24.4954C43.4934 24.4296 43.4933 24.3346 43.5191 24.2285Z" fill="#6E6D6D"/>
<path d="M36.046 42.2908C36.0162 42.2315 36.0068 42.1531 36.0231 42.0581C36.0546 42.1182 36.0605 42.1949 36.046 42.2908Z" fill="#A7A8A9"/>
</svg>
